<svg width="30" height="12" viewBox="0 0 30 12" fill="none" xmlns="http://www.w3.org/2000/svg">
<path d="M0.409091 12V0.363636H4.34091C5.25 0.363636 5.99621 0.518939 6.57955 0.829545C7.16288 1.13636 7.5947 1.55871 7.875 2.09659C8.1553 2.63447 8.29545 3.24621 8.29545 3.93182C8.29545 4.61742 8.1553 5.22538 7.875 5.75568C7.5947 6.28598 7.16477 6.70265 6.58523 7.00568C6.00568 7.30492 5.26515 7.45455 4.36364 7.45455H1.18182V6.18182H4.31818C4.93939 6.18182 5.43939 6.09091 5.81818 5.90909C6.20076 5.72727 6.47727 5.4697 6.64773 5.13636C6.82197 4.79924 6.90909 4.39773 6.90909 3.93182C6.90909 3.46591 6.82197 3.05871 6.64773 2.71023C6.47349 2.36174 6.19508 2.0928 5.8125 1.90341C5.42992 1.71023 4.92424 1.61364 4.29545 1.61364H1.81818V12H0.409091ZM5.88636 6.77273L8.75 12H7.11364L4.29545 6.77273H5.88636ZM10.6435 12V0.363636H12.0526V5.54545H18.2571V0.363636H19.6662V12H18.2571V6.79545H12.0526V12H10.6435Z" fill="#BC0000"/>
<path d="M22.4872 12V0.363636H29.4645V1.61364H23.8963V5.54545H28.9418V6.79545H23.8963V12H22.4872Z" fill="black"/>
</svg>
