<svg width="153" height="55" viewBox="0 0 153 55" fill="none" xmlns="http://www.w3.org/2000/svg">
<path d="M44.8182 47V23.7273H58.7727V26.2273H47.6364V34.0909H57.7273V36.5909H47.6364V47H44.8182ZM83.8758 35.3636C83.8758 37.8182 83.4326 39.9394 82.5462 41.7273C81.6599 43.5152 80.444 44.8939 78.8985 45.8636C77.3531 46.8333 75.5879 47.3182 73.6031 47.3182C71.6182 47.3182 69.8531 46.8333 68.3076 45.8636C66.7622 44.8939 65.5462 43.5152 64.6599 41.7273C63.7735 39.9394 63.3303 37.8182 63.3303 35.3636C63.3303 32.9091 63.7735 30.7879 64.6599 29C65.5462 27.2121 66.7622 25.8333 68.3076 24.8636C69.8531 23.8939 71.6182 23.4091 73.6031 23.4091C75.5879 23.4091 77.3531 23.8939 78.8985 24.8636C80.444 25.8333 81.6599 27.2121 82.5462 29C83.4326 30.7879 83.8758 32.9091 83.8758 35.3636ZM81.1485 35.3636C81.1485 33.3485 80.8114 31.6477 80.1372 30.2614C79.4705 28.875 78.5652 27.8258 77.4212 27.1136C76.2849 26.4015 75.0122 26.0455 73.6031 26.0455C72.194 26.0455 70.9175 26.4015 69.7735 27.1136C68.6372 27.8258 67.7319 28.875 67.0576 30.2614C66.3909 31.6477 66.0576 33.3485 66.0576 35.3636C66.0576 37.3788 66.3909 39.0795 67.0576 40.4659C67.7319 41.8523 68.6372 42.9015 69.7735 43.6136C70.9175 44.3258 72.194 44.6818 73.6031 44.6818C75.0122 44.6818 76.2849 44.3258 77.4212 43.6136C78.5652 42.9015 79.4705 41.8523 80.1372 40.4659C80.8114 39.0795 81.1485 37.3788 81.1485 35.3636ZM89.2544 47V23.7273H97.1181C98.9362 23.7273 100.429 24.0379 101.595 24.6591C102.762 25.2727 103.626 26.1174 104.186 27.1932C104.747 28.2689 105.027 29.4924 105.027 30.8636C105.027 32.2348 104.747 33.4508 104.186 34.5114C103.626 35.572 102.766 36.4053 101.607 37.0114C100.448 37.6098 98.9666 37.9091 97.1635 37.9091H90.7999V35.3636H97.0726C98.315 35.3636 99.315 35.1818 100.073 34.8182C100.838 34.4545 101.391 33.9394 101.732 33.2727C102.08 32.5985 102.254 31.7955 102.254 30.8636C102.254 29.9318 102.08 29.1174 101.732 28.4205C101.383 27.7235 100.826 27.1856 100.061 26.8068C99.2961 26.4205 98.2847 26.2273 97.0272 26.2273H92.0726V47H89.2544ZM100.209 36.5455L105.936 47H102.664L97.0272 36.5455H100.209ZM126.272 31C126.022 30.2348 125.693 29.5492 125.284 28.9432C124.882 28.3295 124.401 27.8068 123.84 27.375C123.287 26.9432 122.659 26.6136 121.954 26.3864C121.25 26.1591 120.477 26.0455 119.636 26.0455C118.257 26.0455 117.003 26.4015 115.875 27.1136C114.746 27.8258 113.848 28.875 113.181 30.2614C112.515 31.6477 112.181 33.3485 112.181 35.3636C112.181 37.3788 112.518 39.0795 113.193 40.4659C113.867 41.8523 114.78 42.9015 115.931 43.6136C117.083 44.3258 118.378 44.6818 119.818 44.6818C121.151 44.6818 122.325 44.3977 123.34 43.8295C124.363 43.2538 125.159 42.4432 125.727 41.3977C126.303 40.3447 126.59 39.1061 126.59 37.6818L127.454 37.8636H120.454V35.3636H129.318V37.8636C129.318 39.7803 128.909 41.447 128.09 42.8636C127.28 44.2803 126.159 45.3788 124.727 46.1591C123.303 46.9318 121.666 47.3182 119.818 47.3182C117.757 47.3182 115.947 46.8333 114.386 45.8636C112.833 44.8939 111.621 43.5152 110.75 41.7273C109.886 39.9394 109.454 37.8182 109.454 35.3636C109.454 33.5227 109.7 31.8674 110.193 30.3977C110.693 28.9205 111.397 27.6629 112.306 26.625C113.215 25.5871 114.291 24.7917 115.534 24.2386C116.776 23.6856 118.143 23.4091 119.636 23.4091C120.863 23.4091 122.007 23.5947 123.068 23.9659C124.136 24.3295 125.087 24.8485 125.92 25.5227C126.761 26.1894 127.462 26.9886 128.022 27.9205C128.583 28.8447 128.969 29.8712 129.181 31H126.272ZM134.784 47V23.7273H148.83V26.2273H137.603V34.0909H148.103V36.5909H137.603V44.5H149.012V47H134.784Z" fill="white"/>
<path d="M42.7727 9.61364V8.36364H51.5V9.61364H47.8409V20H46.4318V9.61364H42.7727ZM54.8338 14.75V20H53.4929V8.36364H54.8338V12.6364H54.9474C55.152 12.1856 55.4588 11.8277 55.8679 11.5625C56.2808 11.2936 56.83 11.1591 57.5156 11.1591C58.1103 11.1591 58.6312 11.2784 59.0781 11.517C59.5251 11.7519 59.8717 12.1136 60.1179 12.6023C60.3679 13.0871 60.4929 13.7045 60.4929 14.4545V20H59.152V14.5455C59.152 13.8523 58.9721 13.3163 58.6122 12.9375C58.2562 12.5549 57.7618 12.3636 57.1293 12.3636C56.6899 12.3636 56.2959 12.4564 55.9474 12.642C55.6027 12.8277 55.33 13.0985 55.1293 13.4545C54.9323 13.8106 54.8338 14.2424 54.8338 14.75ZM66.6051 20.1818C65.7642 20.1818 65.0388 19.9962 64.429 19.625C63.8229 19.25 63.3551 18.7273 63.0256 18.0568C62.6998 17.3826 62.5369 16.5985 62.5369 15.7045C62.5369 14.8106 62.6998 14.0227 63.0256 13.3409C63.3551 12.6553 63.8134 12.1212 64.4006 11.7386C64.9915 11.3523 65.6809 11.1591 66.4688 11.1591C66.9233 11.1591 67.3722 11.2348 67.8153 11.3864C68.2585 11.5379 68.6619 11.7841 69.0256 12.125C69.3892 12.4621 69.679 12.9091 69.8949 13.4659C70.1108 14.0227 70.2188 14.7083 70.2188 15.5227V16.0909H63.4915V14.9318H68.8551C68.8551 14.4394 68.7566 14 68.5597 13.6136C68.3665 13.2273 68.09 12.9223 67.7301 12.6989C67.3741 12.4754 66.9536 12.3636 66.4688 12.3636C65.9347 12.3636 65.4725 12.4962 65.0824 12.7614C64.696 13.0227 64.3987 13.3636 64.1903 13.7841C63.982 14.2045 63.8778 14.6553 63.8778 15.1364V15.9091C63.8778 16.5682 63.9915 17.1269 64.2188 17.5852C64.4498 18.0398 64.7699 18.3864 65.179 18.625C65.5881 18.8598 66.0634 18.9773 66.6051 18.9773C66.9574 18.9773 67.2756 18.928 67.5597 18.8295C67.8475 18.7273 68.0956 18.5758 68.304 18.375C68.5123 18.1705 68.6733 17.9167 68.7869 17.6136L70.0824 17.9773C69.946 18.4167 69.7169 18.803 69.3949 19.1364C69.0729 19.4659 68.6752 19.7235 68.2017 19.9091C67.7282 20.0909 67.196 20.1818 66.6051 20.1818Z" fill="white"/>
<path d="M76.9403 20V8.36364H80.8722C81.7813 8.36364 82.5275 8.51894 83.1108 8.82955C83.6941 9.13636 84.1259 9.55871 84.4062 10.0966C84.6866 10.6345 84.8267 11.2462 84.8267 11.9318C84.8267 12.6174 84.6866 13.2254 84.4062 13.7557C84.1259 14.286 83.696 14.7027 83.1165 15.0057C82.5369 15.3049 81.7964 15.4545 80.8949 15.4545H77.7131V14.1818H80.8494C81.4706 14.1818 81.9706 14.0909 82.3494 13.9091C82.732 13.7273 83.0085 13.4697 83.179 13.1364C83.3532 12.7992 83.4403 12.3977 83.4403 11.9318C83.4403 11.4659 83.3532 11.0587 83.179 10.7102C83.0047 10.3617 82.7263 10.0928 82.3438 9.90341C81.9612 9.71023 81.4555 9.61364 80.8267 9.61364H78.3494V20H76.9403ZM82.4176 14.7727L85.2812 20H83.6449L80.8267 14.7727H82.4176ZM90.5582 20.1818C89.7173 20.1818 88.992 19.9962 88.3821 19.625C87.776 19.25 87.3082 18.7273 86.9787 18.0568C86.6529 17.3826 86.4901 16.5985 86.4901 15.7045C86.4901 14.8106 86.6529 14.0227 86.9787 13.3409C87.3082 12.6553 87.7666 12.1212 88.3537 11.7386C88.9446 11.3523 89.634 11.1591 90.4219 11.1591C90.8764 11.1591 91.3253 11.2348 91.7685 11.3864C92.2116 11.5379 92.6151 11.7841 92.9787 12.125C93.3423 12.4621 93.6321 12.9091 93.848 13.4659C94.0639 14.0227 94.1719 14.7083 94.1719 15.5227V16.0909H87.4446V14.9318H92.8082C92.8082 14.4394 92.7098 14 92.5128 13.6136C92.3196 13.2273 92.0431 12.9223 91.6832 12.6989C91.3272 12.4754 90.9067 12.3636 90.4219 12.3636C89.8878 12.3636 89.4257 12.4962 89.0355 12.7614C88.6491 13.0227 88.3518 13.3636 88.1435 13.7841C87.9351 14.2045 87.831 14.6553 87.831 15.1364V15.9091C87.831 16.5682 87.9446 17.1269 88.1719 17.5852C88.4029 18.0398 88.723 18.3864 89.1321 18.625C89.5412 18.8598 90.0166 18.9773 90.5582 18.9773C90.9105 18.9773 91.2287 18.928 91.5128 18.8295C91.8007 18.7273 92.0488 18.5758 92.2571 18.375C92.4654 18.1705 92.6264 17.9167 92.7401 17.6136L94.0355 17.9773C93.8991 18.4167 93.67 18.803 93.348 19.1364C93.026 19.4659 92.6283 19.7235 92.1548 19.9091C91.6813 20.0909 91.1491 20.1818 90.5582 20.1818ZM99.5071 20.1818C98.7798 20.1818 98.1378 19.9981 97.581 19.6307C97.0241 19.2595 96.5885 18.7367 96.2741 18.0625C95.9598 17.3845 95.8026 16.5833 95.8026 15.6591C95.8026 14.7424 95.9598 13.947 96.2741 13.2727C96.5885 12.5985 97.026 12.0777 97.5866 11.7102C98.1473 11.3428 98.795 11.1591 99.5298 11.1591C100.098 11.1591 100.547 11.2538 100.876 11.4432C101.21 11.6288 101.464 11.8409 101.638 12.0795C101.816 12.3144 101.954 12.5076 102.053 12.6591H102.166V8.36364H103.507V20H102.212V18.6591H102.053C101.954 18.8182 101.814 19.0189 101.632 19.2614C101.45 19.5 101.191 19.714 100.854 19.9034C100.517 20.089 100.068 20.1818 99.5071 20.1818ZM99.6889 18.9773C100.227 18.9773 100.681 18.8371 101.053 18.5568C101.424 18.2727 101.706 17.8807 101.899 17.3807C102.092 16.8769 102.189 16.2955 102.189 15.6364C102.189 14.9848 102.094 14.4148 101.905 13.9261C101.715 13.4337 101.435 13.0511 101.064 12.7784C100.693 12.5019 100.234 12.3636 99.6889 12.3636C99.1207 12.3636 98.6473 12.5095 98.2685 12.8011C97.8935 13.089 97.6113 13.4811 97.4219 13.9773C97.2363 14.4697 97.1435 15.0227 97.1435 15.6364C97.1435 16.2576 97.2382 16.822 97.4276 17.3295C97.6207 17.8333 97.9048 18.2348 98.2798 18.5341C98.6586 18.8295 99.1283 18.9773 99.6889 18.9773ZM110.831 20V8.36364H112.24V13.5455H118.445V8.36364H119.854V20H118.445V14.7955H112.24V20H110.831ZM126.038 20.1818C125.25 20.1818 124.559 19.9943 123.964 19.6193C123.374 19.2443 122.911 18.7197 122.578 18.0455C122.249 17.3712 122.084 16.5833 122.084 15.6818C122.084 14.7727 122.249 13.9792 122.578 13.3011C122.911 12.6231 123.374 12.0966 123.964 11.7216C124.559 11.3466 125.25 11.1591 126.038 11.1591C126.826 11.1591 127.516 11.3466 128.107 11.7216C128.701 12.0966 129.163 12.6231 129.493 13.3011C129.826 13.9792 129.993 14.7727 129.993 15.6818C129.993 16.5833 129.826 17.3712 129.493 18.0455C129.163 18.7197 128.701 19.2443 128.107 19.6193C127.516 19.9943 126.826 20.1818 126.038 20.1818ZM126.038 18.9773C126.637 18.9773 127.129 18.8239 127.516 18.517C127.902 18.2102 128.188 17.8068 128.374 17.3068C128.559 16.8068 128.652 16.2652 128.652 15.6818C128.652 15.0985 128.559 14.5549 128.374 14.0511C128.188 13.5473 127.902 13.1402 127.516 12.8295C127.129 12.5189 126.637 12.3636 126.038 12.3636C125.44 12.3636 124.947 12.5189 124.561 12.8295C124.175 13.1402 123.889 13.5473 123.703 14.0511C123.518 14.5549 123.425 15.0985 123.425 15.6818C123.425 16.2652 123.518 16.8068 123.703 17.3068C123.889 17.8068 124.175 18.2102 124.561 18.517C124.947 18.8239 125.44 18.9773 126.038 18.9773ZM135.585 20.1818C134.797 20.1818 134.106 19.9943 133.511 19.6193C132.92 19.2443 132.458 18.7197 132.125 18.0455C131.795 17.3712 131.631 16.5833 131.631 15.6818C131.631 14.7727 131.795 13.9792 132.125 13.3011C132.458 12.6231 132.92 12.0966 133.511 11.7216C134.106 11.3466 134.797 11.1591 135.585 11.1591C136.373 11.1591 137.063 11.3466 137.653 11.7216C138.248 12.0966 138.71 12.6231 139.04 13.3011C139.373 13.9792 139.54 14.7727 139.54 15.6818C139.54 16.5833 139.373 17.3712 139.04 18.0455C138.71 18.7197 138.248 19.2443 137.653 19.6193C137.063 19.9943 136.373 20.1818 135.585 20.1818ZM135.585 18.9773C136.184 18.9773 136.676 18.8239 137.062 18.517C137.449 18.2102 137.735 17.8068 137.92 17.3068C138.106 16.8068 138.199 16.2652 138.199 15.6818C138.199 15.0985 138.106 14.5549 137.92 14.0511C137.735 13.5473 137.449 13.1402 137.062 12.8295C136.676 12.5189 136.184 12.3636 135.585 12.3636C134.987 12.3636 134.494 12.5189 134.108 12.8295C133.722 13.1402 133.436 13.5473 133.25 14.0511C133.064 14.5549 132.972 15.0985 132.972 15.6818C132.972 16.2652 133.064 16.8068 133.25 17.3068C133.436 17.8068 133.722 18.2102 134.108 18.517C134.494 18.8239 134.987 18.9773 135.585 18.9773ZM144.882 20.1818C144.155 20.1818 143.513 19.9981 142.956 19.6307C142.399 19.2595 141.964 18.7367 141.649 18.0625C141.335 17.3845 141.178 16.5833 141.178 15.6591C141.178 14.7424 141.335 13.947 141.649 13.2727C141.964 12.5985 142.401 12.0777 142.962 11.7102C143.522 11.3428 144.17 11.1591 144.905 11.1591C145.473 11.1591 145.922 11.2538 146.251 11.4432C146.585 11.6288 146.839 11.8409 147.013 12.0795C147.191 12.3144 147.329 12.5076 147.428 12.6591H147.541V8.36364H148.882V20H147.587V18.6591H147.428C147.329 18.8182 147.189 19.0189 147.007 19.2614C146.825 19.5 146.566 19.714 146.229 19.9034C145.892 20.089 145.443 20.1818 144.882 20.1818ZM145.064 18.9773C145.602 18.9773 146.056 18.8371 146.428 18.5568C146.799 18.2727 147.081 17.8807 147.274 17.3807C147.467 16.8769 147.564 16.2955 147.564 15.6364C147.564 14.9848 147.469 14.4148 147.28 13.9261C147.09 13.4337 146.81 13.0511 146.439 12.7784C146.068 12.5019 145.609 12.3636 145.064 12.3636C144.496 12.3636 144.022 12.5095 143.643 12.8011C143.268 13.089 142.986 13.4811 142.797 13.9773C142.611 14.4697 142.518 15.0227 142.518 15.6364C142.518 16.2576 142.613 16.822 142.803 17.3295C142.996 17.8333 143.28 18.2348 143.655 18.5341C144.034 18.8295 144.503 18.9773 145.064 18.9773Z" fill="#BC0000"/>
<rect x="5.21204" y="13.4012" width="3" height="43" transform="rotate(-41.0431 5.21204 13.4012)" fill="white"/>
<rect y="16.8494" width="15" height="9.6489" transform="rotate(-41.0431 0 16.8494)" fill="white"/>
<rect x="34.424" y="10.844" width="3" height="43" transform="rotate(39.6256 34.424 10.844)" fill="white"/>
<rect width="13.2732" height="8.75261" transform="matrix(0.77015 0.637863 -0.637681 0.770301 31.3966 8.24684)" fill="white"/>
<mask id="mask0_539_22" style="mask-type:alpha" maskUnits="userSpaceOnUse" x="20" y="7" width="17" height="16">
<path d="M36.1732 7.00395L35.4007 22.901L20.7094 10.7698L36.1732 7.00395Z" fill="white"/>
</mask>
<g mask="url(#mask0_539_22)">
<rect x="24.4375" y="2.50071" width="9.16667" height="9" transform="rotate(39.5479 24.4375 2.50071)" fill="white"/>
</g>
</svg>
