<svg width="80" height="76" viewBox="0 0 80 76" fill="none" xmlns="http://www.w3.org/2000/svg">
<rect x="0.5" y="0.5" width="79" height="75" rx="2.5" fill="white" stroke="#D40000"/>
<rect x="4" y="25" width="36" height="3" fill="#D9D9D9"/>
<rect x="43" y="25" width="9" height="3" fill="#D9D9D9"/>
<rect x="28" y="59" width="23" height="4" fill="#D9D9D9"/>
<rect x="4" y="31" width="9" height="3" fill="#D9D9D9"/>
<rect x="16" y="31" width="9" height="3" fill="#D9D9D9"/>
<rect x="29" y="31" width="31" height="3" fill="#D9D9D9"/>
<rect x="4" y="20" width="22" height="3" fill="#D9D9D9"/>
<rect x="30" y="20" width="11" height="3" fill="#D9D9D9"/>
<rect x="44" y="20" width="16" height="3" fill="#D9D9D9"/>
<rect x="15" y="6" width="49" height="7" fill="#D9D9D9"/>
<path d="M73.8352 3.72727L74.6193 5.06534L75.4034 3.72727H75.983L74.9261 5.36364L75.983 7H75.4034L74.6193 5.73011L73.8352 7H73.2557L74.2955 5.36364L73.2557 3.72727H73.8352Z" fill="#D9D9D9"/>
</svg>
