<svg width="152" height="76" viewBox="0 0 152 76" fill="none" xmlns="http://www.w3.org/2000/svg">
<rect x="0.5" y="0.5" width="151" height="18.2533" rx="1.5" fill="white" stroke="#D50000"/>
<rect x="5" y="5.06667" width="13" height="9.12" fill="#809CFF"/>
<rect x="30.5" y="57.2467" width="93" height="18.2533" rx="1.5" fill="white" stroke="#D50000"/>
<rect x="35" y="61.8133" width="14" height="9.12" fill="#809CFF"/>
<rect x="112" y="62.8267" width="8" height="1.01333" fill="#809CFF"/>
<rect x="112" y="64.8533" width="8" height="1.01333" fill="#809CFF"/>
<rect x="112" y="66.88" width="8" height="1.01333" fill="#809CFF"/>
<rect x="112" y="68.9067" width="8" height="1.01333" fill="#809CFF"/>
<rect x="86" y="8.10667" width="17" height="2.02667" fill="#809CFF"/>
<rect x="107" y="8.10667" width="17" height="2.02667" fill="#809CFF"/>
<rect x="128" y="8.10667" width="17" height="2.02667" fill="#809CFF"/>
<path d="M76.2929 54.4138C76.6834 54.8043 77.3166 54.8043 77.7071 54.4138L84.0711 48.0498C84.4616 47.6593 84.4616 47.0261 84.0711 46.6356C83.6805 46.2451 83.0474 46.2451 82.6569 46.6356L77 52.2925L71.3431 46.6356C70.9526 46.2451 70.3195 46.2451 69.9289 46.6356C69.5384 47.0261 69.5384 47.6593 69.9289 48.0498L76.2929 54.4138ZM76 38.5067L76 53.7067L78 53.7067L78 38.5067L76 38.5067Z" fill="white"/>
<path d="M77.7071 26.6529C77.3166 26.2624 76.6834 26.2624 76.2929 26.6529L69.9289 33.0169C69.5384 33.4074 69.5384 34.0405 69.9289 34.4311C70.3195 34.8216 70.9526 34.8216 71.3431 34.4311L77 28.7742L82.6569 34.4311C83.0474 34.8216 83.6805 34.8216 84.0711 34.4311C84.4616 34.0405 84.4616 33.4074 84.0711 33.0169L77.7071 26.6529ZM78 40.5333L78 27.36L76 27.36L76 40.5333L78 40.5333Z" fill="white"/>
</svg>
